<svg xmlns="http://www.w3.org/2000/svg" viewBox="0 0 427.79 537.31"><defs><style>.cls-1{fill:#d8852d;}</style></defs><title>logo2</title><g id="Layer_2" data-name="Layer 2"><g id="Layer_1-2" data-name="Layer 1"><path class="cls-1" d="M187.3,158.21q-15.56,0-15.57-17.67,0-10.51,3.79-17.25l5.47-.85v2.11q1.26,6.74,4,9.47a10,10,0,0,0,7.36,2.73,16.38,16.38,0,0,0,13.47-6.31q5-6.31,9.25-22.3l6.74-1.26q3.78,7.56,13.46,7.57,8,0,11.36-6.94t5.05-20.83l7.57-1.26v4.63a76.33,76.33,0,0,1-2.94,20.61,41.12,41.12,0,0,1-10.1,17.89q-7.16,7.37-19.78,7.36a16.23,16.23,0,0,1-10.51-3.37Q205,158.22,187.3,158.21Z"/><path class="cls-1" d="M308.06,101.4,306,98.46q4.62-4.2,12.83-11.15T336,72.79q9.06-7.58,16.2-13.25t9.68-7.36a32,32,0,0,1-6.32-10.73,29.47,29.47,0,0,1-1.67-8.21,28.89,28.89,0,0,1,4.62-15.15A44.8,44.8,0,0,1,370.33,5.26Q377.49,0,384.64,0q16,0,16,18.51,0,16.41-12.2,30.3t-33,26.72Q334.57,88.37,308.06,101.4Zm69-61a76.88,76.88,0,0,0,6.32-7.15,14,14,0,0,0,2.94-8.84c0-3.08-.91-5.26-2.73-6.52a10.51,10.51,0,0,0-6.1-1.89q-5.48,0-8.21,3.15a9.88,9.88,0,0,0-2.73,6.53,9.89,9.89,0,0,0,1.47,5Q369.49,33.24,377.06,40.39Z"/><path d="M34.92,397.86Q25.67,388.61,17,381T0,366.72v-3.79Q4.22,357,11.57,348.42t14.52-16.2q7.15-7.58,10.51-9.68h3.79q10.11,6.31,17.47,12A47.8,47.8,0,0,1,69,346.1q4.62-5.88,10.51-12.41t11.36-11.78a69.55,69.55,0,0,1,8-6.94h3.37q16.81,10.51,25,18.72t8.21,16.62q0,16-33.66,40H98Q90.87,383.14,84.15,377T71.53,365.88q-6.72,13.47-32.82,32Z"/><path d="M384.25,281.3c-7.33-12.49-18.39-18.73-33.28-18.73-11.52,0-20.17,6.19-26.07,18.5l-12.6,25.67a98.22,98.22,0,0,0-5.9,14.95,44.87,44.87,0,0,0-2.12,13.23c0,8.71,3.49,15.87,10.54,21.48A36.11,36.11,0,0,0,338,364.83a56.8,56.8,0,0,0,30.71-8.43,14.18,14.18,0,0,0,.17,2.07,13.14,13.14,0,0,1,.23,2.57,54.87,54.87,0,0,1-9.68,31.51,90.7,90.7,0,0,1-25,24.63A127.05,127.05,0,0,1,301.53,433a114.87,114.87,0,0,1-31.74,5.45h-1.72c9.86-16,14.73-33.8,14.73-53.45q0-19.77-10.72-34.31c-7.16-9.63-17.47-14.5-30.93-14.5a47.32,47.32,0,0,0-28,8.82,81.65,81.65,0,0,0-21.25,22.52,109.94,109.94,0,0,0-13.29,29,103.26,103.26,0,0,0-4.41,28c0,8.88,1.43,16.27,4.18,22.12a19.31,19.31,0,0,0-3.32-.23,124.3,124.3,0,0,1-20.39-2.12,123.41,123.41,0,0,0-21.66-2.12c-18.85,0-35.63,8.13-50.52,24.4S54.46,505.17,43,533.53l8.42,3.78q11.78-15.55,22.06-23.54c6.87-5.33,15.52-8,25.89-8a63.77,63.77,0,0,1,20.39,3.61,69.74,69.74,0,0,0,15.18,3.32H135a20.93,20.93,0,0,0,5.61.63,113.75,113.75,0,0,0,25.44-2.69q12-2.76,27.38-10.95c10.2-5.49,22.92-13.8,38-25,11.8,0,19.65-.17,23.6-.46.52-.05,1-.05,1.55-.11a2.93,2.93,0,0,0,1,.11A141.25,141.25,0,0,0,327,456.54a120.81,120.81,0,0,0,50.87-53.05A163.86,163.86,0,0,0,395.19,329C395.19,309.66,391.52,293.79,384.25,281.3ZM206.66,430.24c-7.56-5.49-11.34-12.83-11.34-22.11,0-8.42,3.78-15.12,11.34-20.16s15.3-7.62,23.15-7.62c9.51,0,16.84,3.15,21.88,9.51s7.56,12.94,7.56,20q0,14.7-23.54,28.59Q218,438.44,206.66,430.24Z"/><path d="M212.32,261.52a313.46,313.46,0,0,0-34.93-31.14V226.6q3.8-5.47,11.16-14.1t14.72-16.41q7.36-7.78,10.73-9.89h3.79q19.35,12.21,26.09,20.41T250.61,222q0,15.14-34.92,39.55Z"/><path d="M327.22,201.82Q318,192.58,309.34,185t-17-14.3V166.9q4.21-5.9,11.57-14.52t14.52-16.2q7.16-7.58,10.52-9.68h3.78q10.11,6.31,17.47,12a47.26,47.26,0,0,1,11.15,11.57q4.62-5.9,10.52-12.42t11.36-11.78a69.7,69.7,0,0,1,8-6.94h3.37q16.83,10.53,25,18.72t8.2,16.62q0,16-33.66,40h-3.79q-7.15-7.16-13.88-13.25t-12.63-11.16q-6.72,13.47-32.82,32Z"/></g></g></svg>